<svg xmlns="http://www.w3.org/2000/svg" xmlns:xlink="http://www.w3.org/1999/xlink" id="PATTERN" viewBox="0 0 500 500"><defs><style>.cls-1{fill:#b8c0c2;}.cls-2{fill:#dfe5e8;}.cls-3{fill:none;}.cls-4{fill:url(#New_Pattern_Swatch_15);}.cls-5{fill:#7c868a;}.cls-6{fill:#ccd1d4;}.cls-7{fill:#949c9f;}</style><pattern id="New_Pattern_Swatch_15" x="0" y="0" width="442.64" height="321.06" patternTransform="translate(2664.92 -1781.51)" patternUnits="userSpaceOnUse" viewBox="0 0 442.64 321.06"><rect class="cls-3" x="0" y="0" width="442.64" height="321.06"></rect><polygon class="cls-5" points="422.94 277.81 427.61 292.19 442.74 292.19 430.5 301.08 435.18 315.47 422.94 306.58 410.7 315.47 415.38 301.08 403.14 292.19 418.26 292.19 422.94 277.81"></polygon><path class="cls-7" d="m422.94,266.91h0c0-6.4-5.19-11.59-11.59-11.59h0c6.4,0,11.59-5.19,11.59-11.59h0c0,6.4,5.19,11.59,11.59,11.59h0c-6.4,0-11.59,5.19-11.59,11.59Z"></path><path class="cls-1" d="m422.94,186.43h0c0-6.4-5.19-11.59-11.59-11.59h0c6.4,0,11.59-5.19,11.59-11.59h0c0,6.4,5.19,11.59,11.59,11.59h0c-6.4,0-11.59,5.19-11.59,11.59Z"></path><polygon class="cls-6" points="422.94 192.81 427.61 207.2 442.74 207.2 430.5 216.09 435.18 230.47 422.94 221.58 410.7 230.47 415.38 216.09 403.14 207.2 418.26 207.2 422.94 192.81"></polygon><polygon class="cls-2" points="367.89 215.23 375.48 238.59 400.04 238.59 380.17 253.02 387.76 276.38 367.89 261.94 348.02 276.38 355.61 253.02 335.74 238.59 360.3 238.59 367.89 215.23"></polygon><path class="cls-1" d="m367.89,314.23h0c0-6.4-5.19-11.59-11.59-11.59h0c6.4,0,11.59-5.19,11.59-11.59h0c0,6.4,5.19,11.59,11.59,11.59h0c-6.4,0-11.59,5.19-11.59,11.59Z"></path><path class="cls-7" d="m367.89,202.83h0c0-6.4-5.19-11.59-11.59-11.59h0c6.4,0,11.59-5.19,11.59-11.59h0c0,6.4,5.19,11.59,11.59,11.59h0c-6.4,0-11.59,5.19-11.59,11.59Z"></path><path class="cls-1" d="m201.62,266.69h0c0-6.4-5.19-11.59-11.59-11.59h0c6.4,0,11.59-5.19,11.59-11.59h0c0,6.4,5.19,11.59,11.59,11.59h0c-6.4,0-11.59,5.19-11.59,11.59Z"></path><polygon class="cls-6" points="201.62 273.07 206.29 287.46 221.42 287.46 209.18 296.35 213.86 310.74 201.62 301.85 189.38 310.74 194.06 296.35 181.82 287.46 196.94 287.46 201.62 273.07"></polygon><path class="cls-1" d="m311.72,266.69h0c0-6.4-5.19-11.59-11.59-11.59h0c6.4,0,11.59-5.19,11.59-11.59h0c0,6.4,5.19,11.59,11.59,11.59h0c-6.4,0-11.59,5.19-11.59,11.59Z"></path><polygon class="cls-5" points="311.72 273.07 316.4 287.46 331.52 287.46 319.28 296.35 323.96 310.74 311.72 301.85 299.48 310.74 304.16 296.35 291.92 287.46 307.05 287.46 311.72 273.07"></polygon><polygon class="cls-1" points="256.67 295.49 264.26 318.85 288.82 318.85 268.95 333.29 276.54 356.64 256.67 342.21 236.8 356.64 244.39 333.29 224.52 318.85 249.08 318.85 256.67 295.49"></polygon><path class="cls-7" d="m256.67,283.09h0c0-6.4-5.19-11.59-11.59-11.59h0c6.4,0,11.59-5.19,11.59-11.59h0c0,6.4,5.19,11.59,11.59,11.59h0c-6.4,0-11.59,5.19-11.59,11.59Z"></path><polygon class="cls-2" points="146.57 295.49 154.16 318.85 178.72 318.85 158.85 333.29 166.44 356.64 146.57 342.21 126.7 356.64 134.29 333.29 114.42 318.85 138.98 318.85 146.57 295.49"></polygon><path class="cls-7" d="m146.57,283.09h0c0-6.4-5.19-11.59-11.59-11.59h0c6.4,0,11.59-5.19,11.59-11.59h0c0,6.4,5.19,11.59,11.59,11.59h0c-6.4,0-11.59,5.19-11.59,11.59Z"></path><polygon class="cls-5" points="-19.7 277.81 -15.03 292.19 .1 292.19 -12.14 301.08 -7.46 315.47 -19.7 306.58 -31.94 315.47 -27.26 301.08 -39.5 292.19 -24.38 292.19 -19.7 277.81"></polygon><polygon class="cls-6" points="-19.7 192.81 -15.03 207.2 .1 207.2 -12.14 216.09 -7.46 230.47 -19.7 221.58 -31.94 230.47 -27.26 216.09 -39.5 207.2 -24.38 207.2 -19.7 192.81"></polygon><polygon class="cls-6" points="90.4 277.81 95.08 292.19 110.2 292.19 97.96 301.08 102.64 315.47 90.4 306.58 78.16 315.47 82.84 301.08 70.6 292.19 85.73 292.19 90.4 277.81"></polygon><path class="cls-7" d="m90.4,266.91h0c0-6.4-5.19-11.59-11.59-11.59h0c6.4,0,11.59-5.19,11.59-11.59h0c0,6.4,5.19,11.59,11.59,11.59h0c-6.4,0-11.59,5.19-11.59,11.59Z"></path><path class="cls-1" d="m90.4,186.43h0c0-6.4-5.19-11.59-11.59-11.59h0c6.4,0,11.59-5.19,11.59-11.59h0c0,6.4,5.19,11.59,11.59,11.59h0c-6.4,0-11.59,5.19-11.59,11.59Z"></path><polygon class="cls-5" points="90.4 192.81 95.08 207.2 110.2 207.2 97.96 216.09 102.64 230.47 90.4 221.58 78.16 230.47 82.84 216.09 70.6 207.2 85.73 207.2 90.4 192.81"></polygon><polygon class="cls-1" points="35.35 215.23 42.94 238.59 67.5 238.59 47.63 253.02 55.22 276.38 35.35 261.94 15.48 276.38 23.07 253.02 3.2 238.59 27.76 238.59 35.35 215.23"></polygon><path class="cls-1" d="m35.35,314.23h0c0-6.4-5.19-11.59-11.59-11.59h0c6.4,0,11.59-5.19,11.59-11.59h0c0,6.4,5.19,11.59,11.59,11.59h0c-6.4,0-11.59,5.19-11.59,11.59Z"></path><path class="cls-7" d="m35.35,202.83h0c0-6.4-5.19-11.59-11.59-11.59h0c6.4,0,11.59-5.19,11.59-11.59h0c0,6.4,5.19,11.59,11.59,11.59h0c-6.4,0-11.59,5.19-11.59,11.59Z"></path><polygon class="cls-5" points="422.94 117.28 427.61 131.66 442.74 131.66 430.5 140.56 435.18 154.94 422.94 146.05 410.7 154.94 415.38 140.56 403.14 131.66 418.26 131.66 422.94 117.28"></polygon><path class="cls-7" d="m422.94,106.39h0c0-6.4-5.19-11.59-11.59-11.59h0c6.4,0,11.59-5.19,11.59-11.59h0c0,6.4,5.19,11.59,11.59,11.59h0c-6.4,0-11.59,5.19-11.59,11.59Z"></path><path class="cls-1" d="m422.94,25.9h0c0-6.4-5.19-11.59-11.59-11.59h0c6.4,0,11.59-5.19,11.59-11.59h0c0,6.4,5.19,11.59,11.59,11.59h0c-6.4,0-11.59,5.19-11.59,11.59Z"></path><polygon class="cls-6" points="422.94 32.28 427.61 46.67 442.74 46.67 430.5 55.56 435.18 69.94 422.94 61.05 410.7 69.94 415.38 55.56 403.14 46.67 418.26 46.67 422.94 32.28"></polygon><polygon class="cls-2" points="367.89 54.7 375.48 78.06 400.04 78.06 380.17 92.49 387.76 115.85 367.89 101.42 348.02 115.85 355.61 92.49 335.74 78.06 360.3 78.06 367.89 54.7"></polygon><path class="cls-1" d="m367.89,153.7h0c0-6.4-5.19-11.59-11.59-11.59h0c6.4,0,11.59-5.19,11.59-11.59h0c0,6.4,5.19,11.59,11.59,11.59h0c-6.4,0-11.59,5.19-11.59,11.59Z"></path><path class="cls-7" d="m367.89,42.3h0c0-6.4-5.19-11.59-11.59-11.59h0c6.4,0,11.59-5.19,11.59-11.59h0c0,6.4,5.19,11.59,11.59,11.59h0c-6.4,0-11.59,5.19-11.59,11.59Z"></path><polygon class="cls-5" points="201.62 197.54 206.29 211.93 221.42 211.93 209.18 220.82 213.86 235.2 201.62 226.31 189.38 235.2 194.06 220.82 181.82 211.93 196.94 211.93 201.62 197.54"></polygon><path class="cls-7" d="m201.62,186.65h0c0-6.4-5.19-11.59-11.59-11.59h0c6.4,0,11.59-5.19,11.59-11.59h0c0,6.4,5.19,11.59,11.59,11.59h0c-6.4,0-11.59,5.19-11.59,11.59Z"></path><path class="cls-1" d="m201.62,106.17h0c0-6.4-5.19-11.59-11.59-11.59h0c6.4,0,11.59-5.19,11.59-11.59h0c0,6.4,5.19,11.59,11.59,11.59h0c-6.4,0-11.59,5.19-11.59,11.59Z"></path><polygon class="cls-6" points="201.62 112.55 206.29 126.93 221.42 126.93 209.18 135.82 213.86 150.21 201.62 141.32 189.38 150.21 194.06 135.82 181.82 126.93 196.94 126.93 201.62 112.55"></polygon><polygon class="cls-6" points="311.72 197.54 316.4 211.93 331.52 211.93 319.28 220.82 323.96 235.2 311.72 226.31 299.48 235.2 304.16 220.82 291.92 211.93 307.05 211.93 311.72 197.54"></polygon><path class="cls-7" d="m311.72,186.65h0c0-6.4-5.19-11.59-11.59-11.59h0c6.4,0,11.59-5.19,11.59-11.59h0c0,6.4,5.19,11.59,11.59,11.59h0c-6.4,0-11.59,5.19-11.59,11.59Z"></path><path class="cls-1" d="m311.72,106.17h0c0-6.4-5.19-11.59-11.59-11.59h0c6.4,0,11.59-5.19,11.59-11.59h0c0,6.4,5.19,11.59,11.59,11.59h0c-6.4,0-11.59,5.19-11.59,11.59Z"></path><polygon class="cls-5" points="311.72 112.55 316.4 126.93 331.52 126.93 319.28 135.82 323.96 150.21 311.72 141.32 299.48 150.21 304.16 135.82 291.92 126.93 307.05 126.93 311.72 112.55"></polygon><polygon class="cls-1" points="256.67 134.97 264.26 158.32 288.82 158.32 268.95 172.76 276.54 196.12 256.67 181.68 236.8 196.12 244.39 172.76 224.52 158.32 249.08 158.32 256.67 134.97"></polygon><path class="cls-1" d="m256.67,233.96h0c0-6.4-5.19-11.59-11.59-11.59h0c6.4,0,11.59-5.19,11.59-11.59h0c0,6.4,5.19,11.59,11.59,11.59h0c-6.4,0-11.59,5.19-11.59,11.59Z"></path><path class="cls-7" d="m256.67,122.56h0c0-6.4-5.19-11.59-11.59-11.59h0c6.4,0,11.59-5.19,11.59-11.59h0c0,6.4,5.19,11.59,11.59,11.59h0c-6.4,0-11.59,5.19-11.59,11.59Z"></path><polygon class="cls-2" points="146.57 134.97 154.16 158.32 178.72 158.32 158.85 172.76 166.44 196.12 146.57 181.68 126.7 196.12 134.29 172.76 114.42 158.32 138.98 158.32 146.57 134.97"></polygon><path class="cls-1" d="m146.57,233.96h0c0-6.4-5.19-11.59-11.59-11.59h0c6.4,0,11.59-5.19,11.59-11.59h0c0,6.4,5.19,11.59,11.59,11.59h0c-6.4,0-11.59,5.19-11.59,11.59Z"></path><path class="cls-7" d="m146.57,122.56h0c0-6.4-5.19-11.59-11.59-11.59h0c6.4,0,11.59-5.19,11.59-11.59h0c0,6.4,5.19,11.59,11.59,11.59h0c-6.4,0-11.59,5.19-11.59,11.59Z"></path><polygon class="cls-5" points="-19.7 117.28 -15.03 131.66 .1 131.66 -12.14 140.56 -7.46 154.94 -19.7 146.05 -31.94 154.94 -27.26 140.56 -39.5 131.66 -24.38 131.66 -19.7 117.28"></polygon><polygon class="cls-6" points="-19.7 32.28 -15.03 46.67 .1 46.67 -12.14 55.56 -7.46 69.94 -19.7 61.05 -31.94 69.94 -27.26 55.56 -39.5 46.67 -24.38 46.67 -19.7 32.28"></polygon><polygon class="cls-6" points="90.4 117.28 95.08 131.66 110.2 131.66 97.96 140.56 102.64 154.94 90.4 146.05 78.16 154.94 82.84 140.56 70.6 131.66 85.73 131.66 90.4 117.28"></polygon><path class="cls-7" d="m90.4,106.39h0c0-6.4-5.19-11.59-11.59-11.59h0c6.4,0,11.59-5.19,11.59-11.59h0c0,6.4,5.19,11.59,11.59,11.59h0c-6.4,0-11.59,5.19-11.59,11.59Z"></path><path class="cls-1" d="m90.4,25.9h0c0-6.4-5.19-11.59-11.59-11.59h0c6.4,0,11.59-5.19,11.59-11.59h0c0,6.4,5.19,11.59,11.59,11.59h0c-6.4,0-11.59,5.19-11.59,11.59Z"></path><polygon class="cls-5" points="90.4 32.28 95.08 46.67 110.2 46.67 97.96 55.56 102.64 69.94 90.4 61.05 78.16 69.94 82.84 55.56 70.6 46.67 85.73 46.67 90.4 32.28"></polygon><polygon class="cls-1" points="35.35 54.7 42.94 78.06 67.5 78.06 47.63 92.49 55.22 115.85 35.35 101.42 15.48 115.85 23.07 92.49 3.2 78.06 27.76 78.06 35.35 54.7"></polygon><path class="cls-1" d="m35.35,153.7h0c0-6.4-5.19-11.59-11.59-11.59h0c6.4,0,11.59-5.19,11.59-11.59h0c0,6.4,5.19,11.59,11.59,11.59h0c-6.4,0-11.59,5.19-11.59,11.59Z"></path><path class="cls-7" d="m35.35,42.3h0c0-6.4-5.19-11.59-11.59-11.59h0c6.4,0,11.59-5.19,11.59-11.59h0c0,6.4,5.19,11.59,11.59,11.59h0c-6.4,0-11.59,5.19-11.59,11.59Z"></path><polygon class="cls-5" points="201.62 37.01 206.29 51.4 221.42 51.4 209.18 60.29 213.86 74.68 201.62 65.79 189.38 74.68 194.06 60.29 181.82 51.4 196.94 51.4 201.62 37.01"></polygon><path class="cls-7" d="m201.62,26.12h0c0-6.4-5.19-11.59-11.59-11.59h0c6.4,0,11.59-5.19,11.59-11.59h0c0,6.4,5.19,11.59,11.59,11.59h0c-6.4,0-11.59,5.19-11.59,11.59Z"></path><polygon class="cls-6" points="311.72 37.01 316.4 51.4 331.52 51.4 319.28 60.29 323.96 74.68 311.72 65.79 299.48 74.68 304.16 60.29 291.92 51.4 307.05 51.4 311.72 37.01"></polygon><path class="cls-7" d="m311.72,26.12h0c0-6.4-5.19-11.59-11.59-11.59h0c6.4,0,11.59-5.19,11.59-11.59h0c0,6.4,5.19,11.59,11.59,11.59h0c-6.4,0-11.59,5.19-11.59,11.59Z"></path><polygon class="cls-1" points="256.67 -25.56 264.26 -2.21 288.82 -2.21 268.95 12.23 276.54 35.59 256.67 21.15 236.8 35.59 244.39 12.23 224.52 -2.21 249.08 -2.21 256.67 -25.56"></polygon><path class="cls-1" d="m256.67,73.43h0c0-6.4-5.19-11.59-11.59-11.59h0c6.4,0,11.59-5.19,11.59-11.59h0c0,6.4,5.19,11.59,11.59,11.59h0c-6.4,0-11.59,5.19-11.59,11.59Z"></path><polygon class="cls-2" points="146.57 -25.56 154.16 -2.21 178.72 -2.21 158.85 12.23 166.44 35.59 146.57 21.15 126.7 35.59 134.29 12.23 114.42 -2.21 138.98 -2.21 146.57 -25.56"></polygon><path class="cls-1" d="m146.57,73.43h0c0-6.4-5.19-11.59-11.59-11.59h0c6.4,0,11.59-5.19,11.59-11.59h0c0,6.4,5.19,11.59,11.59,11.59h0c-6.4,0-11.59,5.19-11.59,11.59Z"></path></pattern></defs><rect class="cls-4" width="500" height="500"></rect></svg>